<svg xmlns="http://www.w3.org/2000/svg" width="421.826" height="78.572" viewBox="0 0 421.826 78.572">
  <g>
    <path d="M0,88.519c4.689-1.245,8.23-2.68,11.388-6.508,3.637-4.5,3.828-10.24,3.828-25.074V28.9c0-10.049-.861-12.729-9.953-13.112V14.54c5.742.191,8.135.287,13.973.287,6.029,0,8.135-.1,13.207-.287v1.244c-8.8.479-9.953,3.063-9.953,13.112V57.032c0,6.221.191,14.26.383,15.983-.479,3.732-1.436,6.8-4.4,9.761C13.014,88.136,4.592,89.188.477,89.667Z" transform="translate(0.001 -11.095)" fill="#5fbdd7"/>
    <path d="M34.641,73.206A12.2,12.2,0,0,1,39.618,62.2c5.359-1.914,11.2-3.637,16.174-4.976.191-7.178-.383-13.877-3.733-15.887a12.221,12.221,0,0,0-8.517-1.244l-.862.861.383,6.125-1.34.861c-2.871.766-4.785-1.148-4.785-3.062,0-2.393,3.732-4.69,6.7-6.029a24.07,24.07,0,0,1,7.848-2.106c6.316,0,10.527,3.828,10.527,15.026,0,5.359-.191,11.293-.191,15.408,0,7.465.957,9.857,4.785,9.857h3.828l.1.766-9.188,4.115a6.048,6.048,0,0,1-4.306-2.488,9.561,9.561,0,0,1-1.244-4.977c-3.542,6.317-8.518,7.561-12.25,7.465C38.469,81.819,34.833,78.565,34.641,73.206ZM55.7,71.2c.191-2.967.1-6.412.1-12.824a125.308,125.308,0,0,0-11.868,4.977c-2.009,1.627-3.254,5.263-2.966,8.613.382,3.637,2.584,6.029,7.177,5.838C51.485,77.7,55.7,74.929,55.7,71.2Z" transform="translate(0.001 -11.095)" fill="#5fbdd7"/>
    <path d="M104.979,79.427a9.086,9.086,0,0,1-1.244-4.785,62.512,62.512,0,0,1-10.049,6.6,25.854,25.854,0,0,1-4.594.479c-8.039,0-14.929-6.891-15.312-19.811-.383-14.068,6.8-25.074,20.959-25.074a18.54,18.54,0,0,1,8.9,2.01V28.13c0-5.359-.67-8.8-1.722-10.336l-5.36-1.244-.191-.766,13.4-4.689.574.383c-.287,2.871-.382,8.709-.382,12.728V67.177c0,7.465,1.148,9.857,4.976,9.857h3.541l.1.766-9.283,4.115A5.921,5.921,0,0,1,104.979,79.427Zm-1.34-5.934V47.558c0-5.168-4.019-9-9.857-9-9,0-13.4,10.335-12.92,21.533.478,10.718,3.924,17.418,14.451,17.513A47.954,47.954,0,0,0,103.639,73.493Z" transform="translate(0.001 -11.095)" fill="#5fbdd7"/>
    <path d="M121.724,60c0-14.068,7.656-23.447,17.992-23.447,9.762,0,13.207,8.326,13.207,16.844l-1.149,1.339H128.136c-.479,14.834,6.125,22.491,14.164,22.491a23.608,23.608,0,0,0,10.24-2.106l.383,1.244c-4.115,2.106-7.465,3.924-11.772,5.647C129.571,82.776,121.724,75.981,121.724,60Zm24.691-6.986c-.1-8.709-3.35-14.356-8.422-14.356-6.412,0-9.666,5.838-9.857,14.739Z" transform="translate(0.001 -11.095)" fill="#5fbdd7"/>
    <path d="M177.418,62.1c0-12.345,10.432-19.332,20.193-20.289-7.656-2.009-12.537-6.7-12.537-13.877,0-8.9,6.987-14.642,17.9-14.642,7.369,0,12.824,3.158,12.824,7.848a4,4,0,0,1-3.445,3.828c-1.34-5.647-4.4-9.571-9.762-9.571-6.7,0-10.432,5.073-10.432,11.772,0,9.474,5.455,13.207,14.547,13.781l.861,2.01c-11.2-.192-21.724,5.264-21.724,18.758,0,11.675,6.508,18.47,17.418,18.47,11.676,0,20.193-8.421,20.193-19.045,0-5.742-2.392-12.154-8.9-12.154-4.115,0-6.221,3.063-6.221,6.6a9.085,9.085,0,0,0,2.967,7.177,5.66,5.66,0,0,1-2.776.67c-2.871,0-5.55-1.818-5.55-6.125,0-6.7,6.316-10.048,9.666-12.441,4.211-2.967,9.953-6.891,9.953-11.963a4.549,4.549,0,0,0-3.35-4.594,4.838,4.838,0,0,1,3.924-1.914c3.637,0,5.455,2.584,5.455,5.934,0,3.062-1.914,5.838-4.785,7.943-2.584,1.914-6.508,4.02-10.814,6.891,10.718-1.531,16.46,5.455,16.46,13.781,0,13.111-11.484,21.246-26.318,21.438C189.189,82.585,177.418,75.5,177.418,62.1Z" transform="translate(0.001 -11.095)" fill="#5fbdd7"/>
    <path d="M275.7,79.905v1.244c-4.881-.191-7.656-.287-13.207-.287-2.967,0-8.326.1-11.1.287V79.905c6.795-.861,9.283-4.019,11.963-10.527,7.465-17.7,23.065-55.6,23.065-55.6l.861-.191c6.412,17.992,14.547,41.248,19.045,53.211,3.349,9,5.168,12.25,12.058,13.111v1.244c-4.115-.191-6.6-.287-11.963-.287-6.316,0-10.335.1-14.355.287V79.905c7.656-.574,9.953-2.392,7.561-9.761-1.819-5.551-3.541-11.006-5.168-15.5H272.443s-3.063,8.039-4.594,12.441C264.4,76.938,267.179,79.618,275.7,79.905Zm17.992-27.371c-2.967-8.422-6.508-18.853-9.57-27.275L273.208,52.534Z" transform="translate(0.001 -11.095)" fill="#5fbdd7"/>
    <path d="M318.185,79.905c5.455-.478,7.177-1.435,7.177-10.144V28.13c0-5.359-.67-8.8-1.722-10.336l-5.36-1.244-.191-.766,13.4-4.689.575.383c-.288,2.966-.383,12.632-.383,15.216V69.665c0,8.8,1.435,9.57,7.177,10.24v1.244c-4.4-.191-6.316-.287-10.623-.287-4.5,0-5.646.1-10.048.287Z" transform="translate(0.001 -11.095)" fill="#5fbdd7"/>
    <path d="M343.544,59.329c0-13.207,8.23-22.777,20.1-22.777,11.772,0,20.1,9.666,20.1,22.777,0,13.207-8.326,22.777-20.1,22.777C351.774,82.106,343.544,72.536,343.544,59.329Zm32.443,0c0-13.016-4.881-21.055-12.346-21.055-7.56,0-12.345,8.039-12.345,21.055s4.785,21.055,12.345,21.055C371.106,80.384,375.987,72.345,375.987,59.329Z" transform="translate(0.001 -11.095)" fill="#5fbdd7"/>
    <path d="M390.625,60c0-14.068,7.657-23.447,17.993-23.447,9.761,0,13.207,8.326,13.207,16.844l-1.149,1.339H397.038c-.479,14.834,6.125,22.491,14.164,22.491a23.611,23.611,0,0,0,10.24-2.106l.383,1.244c-4.116,2.106-7.465,3.924-11.772,5.647C398.473,82.776,390.625,75.981,390.625,60Zm24.692-6.986c-.1-8.709-3.35-14.356-8.422-14.356-6.412,0-9.666,5.838-9.857,14.739Z" transform="translate(0.001 -11.095)" fill="#5fbdd7"/>
  </g>
</svg>
